HIERARCHY
ROOT Hip
{
	OFFSET 0 1.131 0.0052
	CHANNELS 6 Xposition Yposition Zposition Xrotation Yrotation Zrotation
	JOINT Abdomen
	{
		OFFSET 0 -0.047353 -0.05
		CHANNELS 3 Xrotation Zrotation Yrotation
		JOINT Chest
		{
			OFFSET 0 0.132153 0.007439
			CHANNELS 3 Xrotation Zrotation Yrotation
			JOINT Neck
			{
				OFFSET 0 0.3078 0.006161
				CHANNELS 3 Xrotation Zrotation Yrotation
				JOINT Head_comp
				{
					OFFSET 0 0.0884 0.013
					CHANNELS 3 Xrotation Yrotation Zrotation
					End Site
					{
						OFFSET -0 0.156 0.0624
					}
				}
			}
			JOINT Left_Collar
			{
				OFFSET 0.02282 0.250342 0.017193
				CHANNELS 2 Yrotation Zrotation
				JOINT Left_Shoulder
				{
					OFFSET 0.15421 0 0
					CHANNELS 3 Xrotation Yrotation Zrotation
					JOINT Left_Forearm
					{
						OFFSET 0.265212 0 0
						CHANNELS 2 Yrotation Xrotation
						JOINT Left_Hand
						{
							OFFSET 0.27571 0 0
							CHANNELS 2 Zrotation Yrotation
							JOINT L1ProxPhalanx
							{
								OFFSET 0.014142 0.001733 0.014142
								CHANNELS 3 Yrotation Zrotation Xrotation
								JOINT L1MidPhalanx
								{
									OFFSET 0.04 0 0
									CHANNELS 1 Zrotation
									JOINT L1DistPhalanx
									{
										OFFSET 0.035 0 0
										CHANNELS 1 Zrotation
										End Site
										{
											OFFSET 0.029 -0 -0
										}
									}
								}
							}
							JOINT L2ProxPhalanx
							{
								OFFSET 0.0821037 0.001578 0.0219996
								CHANNELS 2 Yrotation Zrotation
								JOINT L2MidPhalanx
								{
									OFFSET 0.04 0 0
									CHANNELS 1 Zrotation
									JOINT L2DistPhalanx
									{
										OFFSET 0.028 0 0
										CHANNELS 1 Zrotation
										End Site
										{
											OFFSET 0.02 -0 -0
										}
									}
								}
							}
							JOINT L3ProxPhalanx
							{
								OFFSET 0.083 0 0
								CHANNELS 2 Yrotation Zrotation
								JOINT L3MidPhalanx
								{
									OFFSET 0.053 0 0
									CHANNELS 1 Zrotation
									JOINT L3DistPhalanx
									{
										OFFSET 0.03 0 0
										CHANNELS 1 Zrotation
										End Site
										{
											OFFSET 0.023 -0 -0
										}
									}
								}
							}
							JOINT L4ProxPhalanx
							{
								OFFSET 0.077274 -0.000761 -0.0207055
								CHANNELS 2 Yrotation Zrotation
								JOINT L4MidPhalanx
								{
									OFFSET 0.05 0 0
									CHANNELS 1 Zrotation
									JOINT L4DistPhalanx
									{
										OFFSET 0.03 0 0
										CHANNELS 1 Zrotation
										End Site
										{
											OFFSET 0.023 -0 -0
										}
									}
								}
							}
							JOINT L5ProxPhalanx
							{
								OFFSET 0.0675499 -0.001644 -0.039
								CHANNELS 2 Yrotation Zrotation
								JOINT L5MidPhalanx
								{
									OFFSET 0.04 0 0
									CHANNELS 1 Zrotation
									JOINT L5DistPhalanx
									{
										OFFSET 0.021 0 0
										CHANNELS 1 Zrotation
										End Site
										{
											OFFSET 0.022 -0 -0
										}
									}
								}
							}
						}
					}
				}
			}
			JOINT Right_Collar
			{
				OFFSET -0.02282 0.250342 0.017193
				CHANNELS 2 Yrotation Zrotation
				JOINT Right_Shoulder
				{
					OFFSET -0.15421 0 0
					CHANNELS 3 Xrotation Yrotation Zrotation
					JOINT Right_Forearm
					{
						OFFSET -0.265212 0 0
						CHANNELS 2 Yrotation Xrotation
						JOINT Right_Hand
						{
							OFFSET -0.27571 3e-006 0
							CHANNELS 2 Zrotation Yrotation
							JOINT R1ProxPhalanx
							{
								OFFSET -0.014142 0.001733 0.014142
								CHANNELS 3 Yrotation Zrotation Xrotation
								JOINT R1MidPhalanx
								{
									OFFSET -0.04 0 0
									CHANNELS 1 Zrotation
									JOINT R1DistPhalanx
									{
										OFFSET -0.035 0 0
										CHANNELS 1 Zrotation
										End Site
										{
											OFFSET -0.029 -0 -0
										}
									}
								}
							}
							JOINT R2ProxPhalanx
							{
								OFFSET -0.0821037 0.001578 0.0219996
								CHANNELS 2 Yrotation Zrotation
								JOINT R2MidPhalanx
								{
									OFFSET -0.04 0 0
									CHANNELS 1 Zrotation
									JOINT R2DistPhalanx
									{
										OFFSET -0.028 0 0
										CHANNELS 1 Zrotation
										End Site
										{
											OFFSET -0.02 -0 -0
										}
									}
								}
							}
							JOINT R3ProxPhalanx
							{
								OFFSET -0.083 0 0
								CHANNELS 2 Yrotation Zrotation
								JOINT R3MidPhalanx
								{
									OFFSET -0.053 0 0
									CHANNELS 1 Zrotation
									JOINT R3DistPhalanx
									{
										OFFSET -0.03 0 0
										CHANNELS 1 Zrotation
										End Site
										{
											OFFSET -0.023 -0 -0
										}
									}
								}
							}
							JOINT R4ProxPhalanx
							{
								OFFSET -0.077274 -0.000761 -0.0207055
								CHANNELS 2 Yrotation Zrotation
								JOINT R4MidPhalanx
								{
									OFFSET -0.05 0 0
									CHANNELS 1 Zrotation
									JOINT R4DistPhalanx
									{
										OFFSET -0.03 0 0
										CHANNELS 1 Zrotation
										End Site
										{
											OFFSET -0.023 -0 -0
										}
									}
								}
							}
							JOINT R5ProxPhalanx
							{
								OFFSET -0.0675499 -0.001644 -0.039
								CHANNELS 2 Yrotation Zrotation
								JOINT R5MidPhalanx
								{
									OFFSET -0.04 0 0
									CHANNELS 1 Zrotation
									JOINT R5DistPhalanx
									{
										OFFSET -0.021 0 0
										CHANNELS 1 Zrotation
										End Site
										{
											OFFSET -0.022 -0 -0
										}
									}
								}
							}
						}
					}
				}
			}
		}
	}
	JOINT Left_Thigh
	{
		OFFSET 0.1118 -0.1612 -0.0442
		CHANNELS 3 Xrotation Zrotation Yrotation
		JOINT Left_Shin
		{
			OFFSET 0 -0.477856 0
			CHANNELS 1 Xrotation
			JOINT Left_Foot
			{
				OFFSET 0 -0.431952 0
				CHANNELS 2 Xrotation Zrotation
				JOINT Left_Toe
				{
					OFFSET 0 -0.0442 0.119
					CHANNELS 1 Xrotation
					End Site
					{
						OFFSET -0 -0 0.07
					}
				}
			}
		}
	}
	JOINT Right_Thigh
	{
		OFFSET -0.1118 -0.1612 -0.0442
		CHANNELS 3 Xrotation Zrotation Yrotation
		JOINT Right_Shin
		{
			OFFSET 0 -0.477856 0
			CHANNELS 1 Xrotation
			JOINT Right_Foot
			{
				OFFSET 0 -0.431952 0
				CHANNELS 2 Xrotation Zrotation
				JOINT Right_Toe
				{
					OFFSET 0 -0.0442 0.119
					CHANNELS 1 Xrotation
					End Site
					{
						OFFSET -0 -0 0.07
					}
				}
			}
		}
	}
}
MOTION
Frames: 10
Frame Time: 0.009975
-0.100072 -0.0600999 0.0466603 8.21305e-013 4.29479e-008 -5.10957e-006 0 -0 0 0 -0 0 0 -0 0 -0.712627 0.287401 4.0915e-013 4.76042 -25.5175 4.53361 -20.6125 -32.9471 -67.946 2.78532 46.0896 -0.727943 -24.8762 -66.6066 134.685 -10.5837 -3.45241 10.4835 -27.0105 -17.3842 -15.8812 5.47066 -3.95816 -4.96267 -2.28994 -5.09222 2.13988 -20.4239 10.6399 -0.0373568 5.75891 -74.3327 52.3109 -3.9684 21.8869 -4.48111 19.5802 36.9307 57.2728 3.60467 -50.9987 3.29993 16.4253 68.5046 137.007 9.45149 7.30964 -10.3594 36.3744 16.3151 15.2886 -6.21208 14.0558 2.08303 -0.565201 3.61857 -1.11966 22.1123 -9.19271 -0.476 -4.88524 62.1376 -39.4493 0.471053 -0.738569 -0.00607211 0.0240216 -0.495036 0.738599 0 0.482459 -0.738568 -0.00621913 8.49505e-007 -0.482419 0.738599 0 
-0.100047 -0.0601005 0.0466989 9.23736e-013 4.31051e-008 -5.10957e-006 0 -0 0 0 -0 0 0 -0 0 -0.71263 0.287325 6.79307e-013 4.76042 -25.5175 4.53361 -20.6125 -32.9471 -67.946 2.78532 46.0896 -0.727943 -24.8762 -66.6066 134.685 -10.5837 -3.45241 10.4835 -27.0105 -17.3842 -15.8812 5.47066 -3.95816 -4.96267 -2.28994 -5.09222 2.13988 -20.4239 10.6399 -0.0373568 5.75891 -74.3327 52.3109 -3.94593 21.7869 -4.34019 19.3732 36.9635 57.4 3.58425 -50.7098 3.28124 16.9421 67.5314 135.485 9.85501 7.81768 -9.7951 35.938 16.6206 15.393 -6.06278 14.2572 2.81685 0.124348 3.32414 -0.354762 22.3548 -8.40062 -0.652772 -4.12524 61.489 -37.7796 0.473487 -0.74014 -0.00611647 0.0240216 -0.497469 0.740171 0 0.484892 -0.740139 -0.0062638 1.70755e-006 -0.484854 0.740171 0 
-0.100018 -0.0601014 0.0467615 -2.67021e-013 4.33839e-008 -5.10957e-006 0 -0 0 0 -0 0 0 -0 0 -0.712635 0.287231 1.43259e-012 4.76042 -25.5175 4.53361 -20.6125 -32.9471 -67.946 2.78532 46.0896 -0.727943 -24.8762 -66.6066 134.685 -10.5837 -3.45241 10.4835 -27.0105 -17.3842 -15.8812 5.47066 -3.95816 -4.96267 -2.28994 -5.09222 2.13988 -20.4239 10.6399 -0.0373568 5.75891 -74.3327 52.3109 -3.91307 21.6407 -4.0941 19.0521 37.0246 57.6696 3.55441 -50.2876 3.25392 17.459 66.5581 133.964 10.2585 8.32571 -9.23083 35.5016 16.926 15.4975 -5.91347 14.4586 3.55067 0.813898 3.02971 0.410137 22.5974 -7.60853 -0.829544 -3.36525 60.8404 -36.11 0.47743 -0.742013 -0.00618302 0.0240216 -0.501411 0.742044 0 0.488836 -0.742012 -0.00633073 2.41484e-006 -0.488797 0.742044 0 
-0.0999885 -0.0601026 0.0468497 6.1738e-014 4.38121e-008 -5.10956e-006 0 -0 0 0 -0 0 0 -0 0 -0.712643 0.287128 2.02339e-012 4.76042 -25.5175 4.53361 -20.6125 -32.9471 -67.946 2.78532 46.0896 -0.727943 -24.8762 -66.6066 134.685 -10.5837 -3.45241 10.4835 -27.0105 -17.3842 -15.8812 5.47066 -3.95816 -4.96267 -2.28994 -5.09222 2.13988 -20.4239 10.6399 -0.0373568 5.75891 -74.3327 52.3109 -3.87092 21.4527 -3.73421 18.6285 37.125 58.1094 3.51612 -49.7459 3.21887 17.9759 65.5848 132.443 10.662 8.83374 -8.66656 35.0652 17.2315 15.602 -5.76417 14.66 4.28448 1.50345 2.73528 1.17503 22.84 -6.81644 -1.00632 -2.60526 60.1918 -34.4403 0.482983 -0.743856 -0.00627048 0.0240216 -0.506964 0.743888 0 0.494389 -0.743855 -0.00641856 1.70755e-006 -0.494349 0.743888 0 
-0.0999635 -0.0601038 0.0469608 -4.32813e-013 4.43794e-008 -5.10956e-006 0 -0 0 0 -0 0 0 -0 0 -0.712653 0.287031 2.20829e-012 4.76042 -25.5175 4.53361 -20.6125 -32.9471 -67.946 2.78532 46.0896 -0.727943 -24.8762 -66.6066 134.685 -10.5837 -3.45241 10.4835 -27.0105 -17.3842 -15.8812 5.47066 -3.95816 -4.96267 -2.28994 -5.09222 2.13988 -20.4239 10.6399 -0.0373568 5.75891 -74.3327 52.3109 -3.82038 21.2269 -3.26612 18.1231 37.272 58.7143 3.47021 -49.0964 3.17684 18.4929 64.6115 130.921 11.0656 9.34178 -8.10229 34.6287 17.537 15.7065 -5.61486 14.8614 5.0183 2.193 2.44084 1.93993 23.0826 -6.02435 -1.18309 -1.84526 59.5433 -32.7707 0.489978 -0.745426 -0.00637473 0.0240216 -0.513959 0.745458 0 0.501384 -0.745424 -0.00652311 2.41484e-006 -0.501344 0.745458 0 
-0.0999448 -0.0601052 0.0470911 5.33311e-013 4.50656e-008 -5.10956e-006 0 -0 0 0 -0 0 0 -0 0 -0.712665 0.286949 2.01392e-012 4.76042 -25.5175 4.53361 -20.6125 -32.9471 -67.946 2.78532 46.0896 -0.727943 -24.8762 -66.6066 134.685 -10.5837 -3.45241 10.4835 -27.0105 -17.3842 -15.8812 5.47066 -3.95816 -4.96267 -2.28994 -5.09222 2.13988 -20.4239 10.6399 -0.0373568 5.75891 -74.3327 52.3109 -3.76224 20.9665 -2.70206 17.5567 37.4689 59.4612 3.4174 -48.3492 3.12849 19.0099 63.6382 129.4 11.4691 9.84981 -7.53802 34.1923 17.8425 15.811 -5.46556 15.0628 5.75212 2.88255 2.14641 2.70483 23.3252 -5.23226 -1.35986 -1.08527 58.8947 -31.101 0.498188 -0.746609 -0.00649183 0.0240216 -0.522168 0.746642 0 0.509593 -0.746607 -0.00664044 2.41484e-006 -0.509553 0.746642 0 
-0.0999327 -0.0601067 0.0472375 1.85374e-013 4.58501e-008 -5.10955e-006 0 -0 0 0 -0 0 0 -0 0 -0.712679 0.286888 1.58135e-012 4.76042 -25.5175 4.53361 -20.6125 -32.9471 -67.946 2.78532 46.0896 -0.727943 -24.8762 -66.6066 134.685 -10.5837 -3.45241 10.4835 -27.0105 -17.3842 -15.8812 5.47066 -3.95816 -4.96267 -2.28994 -5.09222 2.13988 -20.4239 10.6399 -0.0373568 5.75891 -74.3327 52.3109 -3.69718 20.6745 -2.0544 16.947 37.7171 60.3236 3.35831 -47.5132 3.0744 19.5269 62.665 127.878 11.8726 10.3578 -6.97374 33.7559 18.1479 15.9155 -5.31625 15.2642 6.48594 3.5721 1.85198 3.46973 23.5678 -4.44016 -1.53663 -0.32528 58.2461 -29.4313 0.507406 -0.747367 -0.00661865 0.0240216 -0.531384 0.747402 0 0.518811 -0.747366 -0.00676741 2.28927e-006 -0.518769 0.747402 0 
-0.0999275 -0.0601082 0.0473972 -5.35381e-013 4.67163e-008 -5.10955e-006 0 -0 0 0 -0 0 0 -0 0 -0.712693 0.286848 9.83838e-013 4.76042 -25.5175 4.53361 -20.6125 -32.9471 -67.946 2.78532 46.0896 -0.727943 -24.8762 -66.6066 134.685 -10.5837 -3.45241 10.4835 -27.0105 -17.3842 -15.8812 5.47066 -3.95816 -4.96267 -2.28994 -5.09222 2.13988 -20.4239 10.6399 -0.0373568 5.75891 -74.3327 52.3109 -3.62582 20.3537 -1.33362 16.308 38.0167 61.2773 3.29349 -46.5961 3.01506 20.0439 61.6917 126.357 12.2761 10.8659 -6.40947 33.3195 18.4534 16.02 -5.16695 15.4656 7.21976 4.26165 1.55754 4.23463 23.8103 -3.64807 -1.71341 0.434713 57.5975 -27.7617 0.517465 -0.747696 -0.00675284 0.0240216 -0.541443 0.747731 0 0.528871 -0.747694 -0.00690168 1.70755e-006 -0.528828 0.747731 0 
-0.099929 -0.0601098 0.0475682 3.25846e-013 4.76514e-008 -5.10954e-006 0 -0 0 0 -0 0 0 -0 0 -0.712709 0.286829 3.01441e-013 4.76042 -25.5175 4.53361 -20.6125 -32.9471 -67.946 2.78532 46.0896 -0.727943 -24.8762 -66.6066 134.685 -10.5837 -3.45241 10.4835 -27.0105 -17.3842 -15.8812 5.47066 -3.95816 -4.96267 -2.28994 -5.09222 2.13988 -20.4239 10.6399 -0.0373568 5.75891 -74.3327 52.3109 -3.54869 20.0063 -0.548411 15.6517 38.3674 62.301 3.22342 -45.6049 2.95092 20.561 60.7184 124.835 12.6796 11.3739 -5.8452 32.8831 18.7589 16.1244 -5.01764 15.667 7.95357 4.95119 1.26311 4.99952 24.0529 -2.85598 -1.89018 1.19471 56.949 -26.092 0.528237 -0.747602 -0.00689254 0.0240216 -0.552214 0.747638 0 0.539643 -0.7476 -0.00704136 2.41484e-006 -0.539599 0.747639 0 
-0.0999371 -0.0601114 0.0477489 6.32366e-013 4.86449e-008 -5.10953e-006 0 -0 0 0 -0 0 0 -0 0 -0.712726 0.286831 -4.53671e-013 4.76042 -25.5175 4.53361 -20.6125 -32.9471 -67.946 2.78532 46.0896 -0.727943 -24.8762 -66.6066 134.685 -10.5837 -3.45241 10.4835 -27.0105 -17.3842 -15.8812 5.47066 -3.95816 -4.96267 -2.28994 -5.09222 2.13988 -20.4239 10.6399 -0.0373568 5.75891 -74.3327 52.3109 -3.46627 19.6346 0.294146 14.988 38.7687 63.3768 3.14856 -44.5457 2.88238 21.078 59.7451 123.313 13.0832 11.8819 -5.28093 32.4467 19.0644 16.2289 -4.86833 15.8685 8.68739 5.64074 0.968678 5.76442 24.2955 -2.06389 -2.06695 1.9547 56.3004 -24.4224 0.539616 -0.747093 -0.00703622 0.0240216 -0.563592 0.747131 0 0.551022 -0.747092 -0.00718494 8.96462e-007 -0.550976 0.747131 0 
